<svg xmlns="http://www.w3.org/2000/svg" xmlns:xlink="http://www.w3.org/1999/xlink" viewBox="0 0 32 32"><defs><style>.cls-1,.cls-6{fill:none;}.cls-2{clip-path:url(#clip-path);}.cls-3{fill:#f2623e;}.cls-4{clip-path:url(#clip-path-2);}.cls-5{fill:#231f20;}.cls-6{stroke:#231f20;}</style><clipPath id="clip-path"><rect class="cls-1" width="32" height="32"/></clipPath><clipPath id="clip-path-2"><path class="cls-1" d="M.5,16A15.5,15.5,0,1,0,16,.5,15.5,15.5,0,0,0,.5,16"/></clipPath></defs><title>icon-vio-red</title><g id="Layer_2" data-name="Layer 2"><g id="Layer_1-2" data-name="Layer 1"><g class="cls-2"><path class="cls-3" d="M16,31.5A15.5,15.5,0,1,0,.5,16,15.5,15.5,0,0,0,16,31.5"/></g><g class="cls-4"><path class="cls-5" d="M14.09,26.37h3.82a.67.67,0,0,0,.53-.22.73.73,0,0,0,.21-.52V21.81a.74.74,0,0,0-.22-.55.7.7,0,0,0-.52-.22H14.09a.7.7,0,0,0-.52.22.74.74,0,0,0-.22.55v3.82a.75.75,0,0,0,.74.74m.12-6.7h3.58a.75.75,0,0,0,.77-.77V6.37a.68.68,0,0,0-.22-.53.77.77,0,0,0-.55-.21H14.21a.77.77,0,0,0-.55.21.68.68,0,0,0-.22.53V18.9a.75.75,0,0,0,.77.77"/></g><g class="cls-2"><circle class="cls-6" cx="16" cy="16" r="15.5"/></g></g></g></svg>